# xmcd CD database file
#
# Track frame offsets:
#	150
#	20696
#	45529
#	75248
#	107016
#	124935
#	148572
#
# Disc length: 2288 seconds
#
# Revision: 0
# Processed by: cddbd v1.4PL0 Copyright (c) Steve Scherf et al.
# Submitted via: CDex 1.51
#
DISCID=5208ee07
DTITLE=Chris Juergensen - Prospects
DYEAR=2002
DGENRE=Jazz
TTITLE0=Prospects
TTITLE1=When love greets you
TTITLE2=Extraordinaire
TTITLE3=Shepherd moon
TTITLE4=Where spirits dance
TTITLE5=Absolution
TTITLE6=Papa legba
EXTD=YEAR: 2002
EXTT0=
EXTT1=
EXTT2=
EXTT3=
EXTT4=
EXTT5=
EXTT6=
PLAYORDER=
